<?xml version="1.0" standalone="no"?>
<!DOCTYPE svg PUBLIC "-//W3C//DTD SVG 20010904//EN"
 "http://www.w3.org/TR/2001/REC-SVG-20010904/DTD/svg10.dtd">
<svg version="1.0" xmlns="http://www.w3.org/2000/svg"
 width="1536.000000pt" height="1094.000000pt" viewBox="0 0 1536.000000 1094.000000"
 preserveAspectRatio="xMidYMid meet">
<metadata>
Created by potrace 1.16, written by Peter Selinger 2001-2019
</metadata>
<g transform="translate(0.000000,1094.000000) scale(0.100000,-0.100000)"
fill="#000000" stroke="none">
<path d="M12116 10918 c-77 -39 -107 -99 -140 -283 -10 -49 -30 -120 -47 -157
-26 -60 -29 -75 -23 -131 8 -77 -10 -154 -67 -283 -41 -95 -69 -131 -89 -119
-7 4 -24 -1 -38 -12 -15 -11 -42 -27 -59 -37 -18 -9 -49 -31 -69 -48 -36 -31
-41 -33 -141 -36 -89 -4 -110 -1 -158 18 -52 21 -57 22 -74 6 -14 -12 -21 -14
-26 -6 -4 6 -17 9 -30 6 -12 -3 -36 -2 -51 3 -77 24 -144 34 -156 24 -7 -6
-40 -16 -73 -23 -73 -14 -339 -84 -378 -99 -39 -15 -325 -42 -364 -35 -19 4
-53 1 -76 -5 -23 -6 -100 -25 -172 -42 -133 -31 -216 -63 -262 -99 -19 -15
-41 -20 -82 -20 -72 -1 -120 -23 -197 -93 -58 -54 -107 -79 -184 -96 -19 -5
-59 -18 -89 -30 -30 -12 -99 -35 -154 -51 -85 -25 -104 -34 -129 -64 -39 -47
-296 -183 -363 -193 -34 -4 -49 -11 -52 -24 -5 -18 -54 -49 -77 -49 -6 0 -38
-13 -71 -30 -33 -16 -70 -30 -83 -30 -12 0 -30 -9 -39 -20 -10 -11 -24 -20
-33 -20 -20 0 -161 -54 -235 -91 -33 -16 -94 -54 -135 -85 -93 -70 -237 -139
-256 -123 -9 7 -19 7 -34 -1 -12 -6 -26 -9 -33 -7 -28 10 -66 -23 -85 -75 -11
-29 -21 -62 -23 -73 -2 -10 -18 -26 -34 -34 -17 -9 -47 -26 -67 -38 -21 -13
-43 -23 -50 -23 -7 0 -24 -19 -38 -41 -39 -64 -262 -263 -310 -278 -23 -7 -68
-36 -107 -72 -38 -33 -84 -69 -103 -79 -19 -10 -55 -46 -80 -80 -54 -75 -84
-100 -121 -100 -22 0 -41 -15 -91 -71 -35 -39 -79 -78 -98 -88 -58 -28 -286
-198 -373 -278 -45 -42 -145 -139 -222 -217 -167 -169 -350 -335 -383 -347
-45 -17 -87 -10 -148 27 -32 19 -75 50 -94 68 -49 45 -108 83 -158 100 -24 9
-66 36 -94 61 -31 28 -60 45 -75 45 -17 0 -43 19 -86 63 -74 75 -155 134 -309
223 -62 36 -141 91 -175 121 -35 30 -82 61 -109 70 -61 21 -196 95 -262 145
-29 22 -76 51 -104 66 -45 23 -53 24 -81 13 -18 -7 -61 -19 -96 -26 -72 -14
-101 -39 -94 -78 3 -16 -4 -34 -22 -55 -15 -17 -31 -49 -37 -69 -13 -49 -65
-97 -120 -111 -23 -6 -83 -20 -132 -32 -49 -12 -120 -34 -156 -49 -86 -37
-182 -58 -301 -67 l-95 -6 -75 41 c-41 23 -83 53 -94 66 -18 21 -34 26 -122
36 -56 6 -109 9 -119 5 -15 -6 -16 -18 -11 -111 9 -154 34 -276 67 -329 36
-56 62 -73 147 -95 37 -10 97 -30 131 -45 35 -15 89 -31 120 -37 148 -25 223
-51 270 -93 26 -23 55 -48 65 -55 10 -8 57 -18 110 -22 69 -6 104 -14 141 -33
34 -18 65 -26 101 -26 64 0 132 -20 261 -76 l102 -43 128 6 c128 6 129 5 249
-32 206 -64 295 -103 345 -149 25 -23 78 -62 118 -86 48 -28 82 -57 98 -82 15
-23 43 -47 72 -62 26 -13 81 -50 123 -82 42 -33 106 -79 142 -104 l67 -45 0
-146 c0 -163 -14 -239 -71 -375 -50 -121 -103 -190 -205 -267 -93 -71 -556
-385 -634 -430 -25 -15 -146 -60 -268 -102 l-222 -75 -117 0 c-208 0 -331 23
-651 119 -174 53 -304 65 -618 59 -214 -5 -255 -8 -394 -36 -85 -17 -211 -36
-280 -42 -69 -6 -157 -18 -196 -26 -97 -19 -346 -113 -463 -174 -107 -56 -309
-197 -386 -270 -28 -26 -59 -52 -70 -57 -11 -6 -65 -14 -120 -17 -54 -4 -107
-12 -116 -17 -23 -12 -69 -106 -69 -142 0 -70 64 -115 185 -132 116 -16 160
-45 207 -139 22 -45 66 -97 162 -194 146 -149 236 -215 391 -287 169 -79 184
-85 218 -85 54 0 210 -56 304 -109 73 -41 104 -52 183 -66 52 -8 163 -32 245
-53 147 -36 153 -37 335 -36 273 2 381 24 620 126 109 47 328 107 445 123 28
4 192 33 366 66 174 32 362 63 418 68 275 29 1042 -2 1226 -49 100 -25 235
-79 242 -96 7 -19 -13 -66 -58 -133 -28 -43 -40 -73 -48 -128 -16 -101 -59
-210 -136 -343 -80 -137 -133 -214 -208 -297 -69 -78 -169 -208 -190 -250 -10
-19 -17 -56 -17 -90 0 -74 -11 -89 -110 -154 -81 -52 -108 -84 -130 -151 -8
-26 -17 -38 -30 -38 -24 0 -35 -21 -44 -80 -12 -75 -35 -134 -64 -157 -26 -22
-27 -25 -25 -120 l2 -97 49 -46 c27 -25 53 -56 57 -70 4 -13 25 -49 45 -80 21
-30 50 -86 64 -124 15 -38 32 -76 38 -84 16 -19 38 -81 38 -108 0 -20 8 -21
158 -31 190 -11 207 -19 241 -111 23 -64 57 -119 82 -135 26 -16 107 24 143
71 17 22 67 84 111 138 44 55 88 117 98 138 18 39 88 109 132 133 21 12 31 29
81 137 10 22 38 58 62 80 24 23 59 63 79 89 41 56 41 58 28 280 -8 130 -7 139
12 160 11 12 23 38 26 57 4 19 11 51 15 72 7 28 5 48 -10 90 -11 29 -21 84
-22 123 -2 43 -11 92 -25 128 -17 44 -21 69 -17 101 4 28 2 54 -8 77 -15 35
-14 36 29 102 49 72 100 109 174 126 38 8 47 7 57 -7 9 -12 35 -18 96 -23 59
-4 98 -14 133 -31 83 -42 174 -75 392 -144 242 -76 322 -95 533 -124 215 -30
327 -20 543 51 104 34 133 39 211 39 73 0 97 4 124 20 29 18 40 19 110 11 78
-10 145 -21 250 -43 93 -20 344 -22 442 -4 104 19 369 43 545 50 72 3 146 10
165 16 53 15 155 13 169 -4 11 -13 19 -13 59 0 147 44 543 146 641 164 63 12
160 37 215 55 107 36 179 55 316 86 95 22 365 111 423 141 21 10 77 48 125 84
48 35 112 76 142 91 30 15 103 56 161 90 98 59 107 67 119 106 14 50 36 77 62
77 30 0 177 56 263 99 44 23 89 41 101 41 13 0 73 40 139 93 64 50 150 116
191 145 l75 52 118 0 c109 0 119 -2 138 -22 30 -34 73 -112 73 -133 0 -10 42
-60 94 -111 52 -51 99 -101 105 -112 9 -17 25 -21 111 -27 79 -6 110 -12 143
-31 112 -63 252 -124 286 -124 20 0 64 -7 96 -16 42 -12 105 -17 205 -18 80
-1 157 -5 172 -10 22 -6 32 -2 65 27 59 53 93 66 213 82 l111 14 45 -34 c33
-26 56 -35 83 -35 43 0 45 3 86 115 23 61 26 83 24 170 -3 87 0 108 21 158 24
57 26 59 106 97 45 21 86 44 90 51 4 7 -2 20 -17 31 -13 10 -67 57 -121 105
-73 65 -98 93 -102 118 -4 21 -20 43 -46 64 -22 18 -40 41 -40 51 0 11 -3 20
-7 20 -5 0 -21 20 -38 45 -24 37 -45 53 -111 85 -45 22 -84 46 -88 55 -3 8
-17 15 -30 15 -14 0 -40 13 -58 29 -25 21 -54 32 -123 46 -124 24 -152 36
-242 98 -105 74 -192 116 -355 172 -145 50 -154 58 -123 101 8 12 25 50 39 85
13 35 50 118 81 184 58 121 104 238 132 330 8 28 18 55 23 60 4 6 13 35 20 65
7 30 23 83 37 118 42 107 136 540 153 707 20 194 23 658 6 900 -19 273 -22
410 -7 447 12 32 39 48 79 48 35 0 114 65 140 115 9 18 52 79 95 135 43 57 77
110 75 118 -10 50 -274 133 -492 153 -67 6 -118 17 -133 26 -28 19 -100 138
-183 302 -33 67 -92 162 -137 222 -44 57 -104 142 -134 189 -30 47 -88 128
-130 181 -97 122 -337 373 -400 419 -26 19 -99 74 -161 121 -120 92 -306 200
-374 218 -23 6 -66 31 -96 56 -56 46 -205 121 -380 191 l-98 39 0 43 c0 57 10
74 68 111 43 27 52 40 77 104 49 126 71 160 159 245 98 95 103 110 61 192 -14
27 -25 63 -25 80 0 16 18 77 40 135 42 111 49 165 27 218 -24 56 -39 62 -159
62 -83 0 -117 -4 -142 -17z"/>
</g>
</svg>
